<?xml version="1.0" encoding="utf-8"?>
<!-- Generator: Adobe Illustrator 23.0.2, SVG Export Plug-In . SVG Version: 6.00 Build 0)  -->
<svg version="1.1" id="Layer_1" xmlns="http://www.w3.org/2000/svg" xmlns:xlink="http://www.w3.org/1999/xlink" x="0px" y="0px"
	 viewBox="0 0 192.56 180.74" style="enable-background:new 0 0 192.56 180.74;" xml:space="preserve">
<style type="text/css">
	.st0{fill:#4DAF4E;}
	.st1{fill:#FFFFFF;stroke:#000000;stroke-miterlimit:10;}
	.st2{fill:#E81F64;}
	.st3{fill:#478FCC;}
	.st4{fill:#6B6B6B;}
	.st5{fill:#FFFFFF;}
</style>
<path class="st0" d="M144.15,140.49c0.58,1.84-113.49,56.14-135.52,26.7c-11.13-14.87,2.48-49.41,18.39-64.59
	c4.68-4.47,7.19-4.99,8.85-4.46c8.54,2.73-2.95,33.94,8.51,48.81C64.11,172.54,143.67,138.97,144.15,140.49z"/>
<path class="st1" d="M61.8,54.66"/>
<path class="st2" d="M45.45,136.2c-1.9-0.32,1.84-126.6,38.09-132.77c18.31-3.12,42.84,24.76,49.09,45.84
	c1.84,6.2,1.16,8.67-0.07,9.91c-6.33,6.36-28.85-18.12-47.31-14.7C53.45,50.35,47.02,136.46,45.45,136.2z"/>
<path class="st3" d="M99.4,50.22c1.35-1.37,102.52,74.3,86.73,107.5c-7.98,16.77-44.89,20.81-65.73,13.8
	c-6.13-2.06-7.76-4.04-8.07-5.76c-1.56-8.83,31.41-13.19,39.23-30.26C165.03,106.13,98.27,51.35,99.4,50.22z"/>
<path class="st4" d="M99.99,131.01l15.77-28.27c2.22-3.97-0.63-8.86-5.18-8.89l-31.15-0.22c-4.55-0.03-7.46,4.82-5.3,8.82
	l15.38,28.48C91.75,135.09,97.69,135.13,99.99,131.01z"/>
<circle class="st5" cx="94.9" cy="109.34" r="12.58"/>
</svg>
